<svg xmlns="http://www.w3.org/2000/svg" viewBox="0 0 64 64">
  <rect width="64" height="64" rx="14" fill="#FFC9D9"/>
  <ellipse cx="32" cy="34" rx="22" ry="22" fill="#3B2A1F"/>
  <path d="M10 30 Q8 44 14 50 Q18 44 18 34 Z" fill="#3B2A1F"/>
  <path d="M54 30 Q56 44 50 50 Q46 44 46 34 Z" fill="#3B2A1F"/>
  <ellipse cx="32" cy="38" rx="14" ry="15" fill="#FFE0D0"/>
  <path d="M18 26 Q24 19 32 22 Q40 19 46 26 Q41 33 36 28 Q32 26 28 28 Q23 33 18 26 Z" fill="#3B2A1F"/>
  <ellipse cx="25" cy="38" rx="2.6" ry="3.6" fill="#1A1A1A"/>
  <ellipse cx="39" cy="38" rx="2.6" ry="3.6" fill="#1A1A1A"/>
  <circle cx="25.7" cy="36.6" r="1.1" fill="#FFFFFF"/>
  <circle cx="39.7" cy="36.6" r="1.1" fill="#FFFFFF"/>
  <circle cx="22" cy="44" r="2.2" fill="#FFB3C1" opacity="0.7"/>
  <circle cx="42" cy="44" r="2.2" fill="#FFB3C1" opacity="0.7"/>
  <path d="M29 46 Q32 49 35 46" stroke="#D55E72" stroke-width="1.6" fill="none" stroke-linecap="round"/>
  <circle cx="32" cy="13" r="3" fill="#FF6B8B"/>
  <path d="M28 13 L23 10 L23 17 Z" fill="#FF6B8B"/>
  <path d="M36 13 L41 10 L41 17 Z" fill="#FF6B8B"/>
</svg>
